<svg xmlns="http://www.w3.org/2000/svg" width="300" height="190" fill="none" aria-labelledby="descId" role="img" viewBox="0 0 300 190"><title id="titleId"/><desc id="descId"/><style>.header{font:600 18px &apos;Segoe UI&apos;,Ubuntu,Sans-Serif;fill:#fff;animation:fadeInAnimation .8s ease-in-out forwards}@supports (-moz-appearance:auto){.header{font-size:15.5px}}.lang-name{font:400 11px &quot;Segoe UI&quot;,Ubuntu,Sans-Serif;fill:#9f9f9f}.stagger{opacity:0;animation:fadeInAnimation .3s ease-in-out forwards}#rect-mask rect{animation:slideInAnimation 1s ease-in-out forwards}</style><rect width="299" height="99%" x=".5" y=".5" fill="#151515" stroke="#e4e2e2" stroke-opacity="1" data-testid="card-bg" rx="4.5"/><g data-testid="card-title"><g><text x="0" y="0" class="header" data-testid="header" transform="translate(25, 35) translate(0, 0)">Most Used Languages</text></g></g><g data-testid="main-card-body" transform="translate(0, 55)"><svg x="25" data-testid="lang-items"><mask id="rect-mask"><rect width="250" height="8" x="0" y="0" fill="#fff" rx="5"/></mask><rect width="155.07" height="8" x="0" y="0" fill="#3178c6" data-testid="lang-progress" mask="url(#rect-mask)"/><rect width="37.85" height="8" x="155.07" y="0" fill="#555" data-testid="lang-progress" mask="url(#rect-mask)"/><rect width="14.97" height="8" x="192.92" y="0" fill="#00ADD8" data-testid="lang-progress" mask="url(#rect-mask)"/><rect width="10.47" height="8" x="207.89" y="0" fill="#f1e05a" data-testid="lang-progress" mask="url(#rect-mask)"/><rect width="19.71" height="8" x="218.36" y="0" fill="#ff5a03" data-testid="lang-progress" mask="url(#rect-mask)"/><rect width="19.04" height="8" x="228.07" y="0" fill="#89e051" data-testid="lang-progress" mask="url(#rect-mask)"/><rect width="18.59" height="8" x="237.11" y="0" fill="#e34c26" data-testid="lang-progress" mask="url(#rect-mask)"/><rect width="14.31" height="8" x="245.7" y="0" fill="#639" data-testid="lang-progress" mask="url(#rect-mask)"/><g><g><g><g class="stagger" style="animation-delay:450ms" transform="translate(0, 25) translate(0, 0) translate(0, 0)"><circle cx="5" cy="6" r="5" fill="#3178c6"/><text x="15" y="10" class="lang-name" data-testid="lang-name">TypeScript 62.03%</text></g></g><g><g class="stagger" style="animation-delay:600ms" transform="translate(0, 25) translate(0, 0) translate(0, 25)"><circle cx="5" cy="6" r="5" fill="#555"/><text x="15" y="10" class="lang-name" data-testid="lang-name">C 15.14%</text></g></g><g><g class="stagger" style="animation-delay:750ms" transform="translate(0, 25) translate(0, 0) translate(0, 50)"><circle cx="5" cy="6" r="5" fill="#00ADD8"/><text x="15" y="10" class="lang-name" data-testid="lang-name">Go 5.99%</text></g></g><g><g class="stagger" style="animation-delay:900ms" transform="translate(0, 25) translate(0, 0) translate(0, 75)"><circle cx="5" cy="6" r="5" fill="#f1e05a"/><text x="15" y="10" class="lang-name" data-testid="lang-name">JavaScript 4.19%</text></g></g></g><g><g><g class="stagger" style="animation-delay:450ms" transform="translate(0, 25) translate(150, 0) translate(0, 0)"><circle cx="5" cy="6" r="5" fill="#ff5a03"/><text x="15" y="10" class="lang-name" data-testid="lang-name">Astro 3.88%</text></g></g><g><g class="stagger" style="animation-delay:600ms" transform="translate(0, 25) translate(150, 0) translate(0, 25)"><circle cx="5" cy="6" r="5" fill="#89e051"/><text x="15" y="10" class="lang-name" data-testid="lang-name">Shell 3.62%</text></g></g><g><g class="stagger" style="animation-delay:750ms" transform="translate(0, 25) translate(150, 0) translate(0, 50)"><circle cx="5" cy="6" r="5" fill="#e34c26"/><text x="15" y="10" class="lang-name" data-testid="lang-name">HTML 3.44%</text></g></g><g><g class="stagger" style="animation-delay:900ms" transform="translate(0, 25) translate(150, 0) translate(0, 75)"><circle cx="5" cy="6" r="5" fill="#639"/><text x="15" y="10" class="lang-name" data-testid="lang-name">CSS 1.72%</text></g></g></g></g></svg></g></svg>